<mxfile host="app.diagrams.net" agent="Mozilla/5.0 (Windows NT 10.0; Win64; x64) AppleWebKit/537.36 (KHTML, like Gecko) Chrome/132.0.0.0 Safari/537.36" version="26.0.9">
  <diagram name="Page-1" id="-iuBVk3HLIv2vVfL2JGa">
    <mxGraphModel dx="1485" dy="1832" grid="1" gridSize="10" guides="1" tooltips="1" connect="1" arrows="1" fold="1" page="1" pageScale="1" pageWidth="850" pageHeight="1100" math="0" shadow="0">
      <root>
        <mxCell id="0" />
        <mxCell id="1" parent="0" />
        <mxCell id="QikCQaTpfB3SByb-oad5-3" value="&lt;h1 style=&quot;margin-top: 0px;&quot;&gt;Requirements&lt;/h1&gt;&lt;p&gt;1. Signup/login&amp;nbsp;&lt;/p&gt;&lt;p&gt;2. Music Media consumption&lt;/p&gt;&lt;p&gt;3. Show top 10 songs (trending)&lt;/p&gt;" style="text;html=1;whiteSpace=wrap;overflow=hidden;rounded=0;" vertex="1" parent="1">
          <mxGeometry x="120" y="60" width="350" height="190" as="geometry" />
        </mxCell>
        <mxCell id="QikCQaTpfB3SByb-oad5-4" value="User Login&lt;div&gt;(to track user)&lt;/div&gt;" style="rounded=0;whiteSpace=wrap;html=1;" vertex="1" parent="1">
          <mxGeometry x="120" y="230" width="120" height="60" as="geometry" />
        </mxCell>
        <mxCell id="QikCQaTpfB3SByb-oad5-15" style="edgeStyle=orthogonalEdgeStyle;rounded=0;orthogonalLoop=1;jettySize=auto;html=1;entryX=0;entryY=0.5;entryDx=0;entryDy=0;" edge="1" parent="1" source="QikCQaTpfB3SByb-oad5-5" target="QikCQaTpfB3SByb-oad5-7">
          <mxGeometry relative="1" as="geometry" />
        </mxCell>
        <mxCell id="QikCQaTpfB3SByb-oad5-5" value="SOng Service&lt;div&gt;&lt;br&gt;&lt;/div&gt;" style="rounded=0;whiteSpace=wrap;html=1;" vertex="1" parent="1">
          <mxGeometry x="260" y="230" width="210" height="60" as="geometry" />
        </mxCell>
        <mxCell id="QikCQaTpfB3SByb-oad5-6" value="&lt;div&gt;Song DB&lt;/div&gt;&lt;div&gt;&lt;br&gt;&lt;/div&gt;&lt;div&gt;name,&lt;/div&gt;&lt;div&gt;tags,&lt;/div&gt;&lt;div&gt;url&lt;/div&gt;" style="rounded=0;whiteSpace=wrap;html=1;" vertex="1" parent="1">
          <mxGeometry x="270" y="340" width="210" height="120" as="geometry" />
        </mxCell>
        <mxCell id="QikCQaTpfB3SByb-oad5-7" value="AWS" style="rounded=0;whiteSpace=wrap;html=1;" vertex="1" parent="1">
          <mxGeometry x="580" y="230" width="120" height="60" as="geometry" />
        </mxCell>
        <mxCell id="QikCQaTpfB3SByb-oad5-8" value="Time DB&lt;div&gt;&lt;br&gt;&lt;/div&gt;&lt;div&gt;-&amp;gt; when song played&lt;/div&gt;&lt;div&gt;name&lt;/div&gt;&lt;div&gt;id&amp;nbsp;&lt;/div&gt;&lt;div&gt;Query =&amp;gt; time + groupbysong&lt;/div&gt;" style="rounded=0;whiteSpace=wrap;html=1;" vertex="1" parent="1">
          <mxGeometry x="590" y="310" width="200" height="160" as="geometry" />
        </mxCell>
        <mxCell id="QikCQaTpfB3SByb-oad5-9" style="edgeStyle=orthogonalEdgeStyle;rounded=0;orthogonalLoop=1;jettySize=auto;html=1;entryX=0;entryY=0.75;entryDx=0;entryDy=0;exitX=0.715;exitY=0.978;exitDx=0;exitDy=0;exitPerimeter=0;" edge="1" parent="1" target="QikCQaTpfB3SByb-oad5-8">
          <mxGeometry relative="1" as="geometry">
            <mxPoint x="360.0000000000001" y="289.99999999999994" as="sourcePoint" />
            <mxPoint x="523.0500000000001" y="422.04" as="targetPoint" />
          </mxGeometry>
        </mxCell>
        <mxCell id="QikCQaTpfB3SByb-oad5-12" style="edgeStyle=orthogonalEdgeStyle;rounded=0;orthogonalLoop=1;jettySize=auto;html=1;entryX=0;entryY=0.5;entryDx=0;entryDy=0;" edge="1" parent="1" source="QikCQaTpfB3SByb-oad5-10" target="QikCQaTpfB3SByb-oad5-8">
          <mxGeometry relative="1" as="geometry" />
        </mxCell>
        <mxCell id="QikCQaTpfB3SByb-oad5-19" style="edgeStyle=orthogonalEdgeStyle;rounded=0;orthogonalLoop=1;jettySize=auto;html=1;" edge="1" parent="1" source="QikCQaTpfB3SByb-oad5-10">
          <mxGeometry relative="1" as="geometry">
            <mxPoint x="750" y="300" as="targetPoint" />
          </mxGeometry>
        </mxCell>
        <mxCell id="QikCQaTpfB3SByb-oad5-10" value="&lt;div&gt;&lt;br&gt;&lt;/div&gt;&lt;h1&gt;songs service&lt;/h1&gt;Most trending songs service&lt;div&gt;&lt;br&gt;&lt;/div&gt;&lt;div&gt;number of times song played&amp;nbsp;&lt;/div&gt;&lt;div&gt;+&lt;/div&gt;&lt;div&gt;within 5 hours&lt;/div&gt;" style="rounded=0;whiteSpace=wrap;html=1;" vertex="1" parent="1">
          <mxGeometry x="390" y="70" width="250" height="160" as="geometry" />
        </mxCell>
        <mxCell id="QikCQaTpfB3SByb-oad5-11" style="edgeStyle=orthogonalEdgeStyle;rounded=0;orthogonalLoop=1;jettySize=auto;html=1;entryX=0.448;entryY=0.013;entryDx=0;entryDy=0;entryPerimeter=0;" edge="1" parent="1" source="QikCQaTpfB3SByb-oad5-5" target="QikCQaTpfB3SByb-oad5-6">
          <mxGeometry relative="1" as="geometry" />
        </mxCell>
        <mxCell id="QikCQaTpfB3SByb-oad5-14" style="edgeStyle=orthogonalEdgeStyle;rounded=0;orthogonalLoop=1;jettySize=auto;html=1;entryX=0.398;entryY=0.961;entryDx=0;entryDy=0;entryPerimeter=0;" edge="1" parent="1" source="QikCQaTpfB3SByb-oad5-5" target="QikCQaTpfB3SByb-oad5-10">
          <mxGeometry relative="1" as="geometry" />
        </mxCell>
        <mxCell id="QikCQaTpfB3SByb-oad5-16" value="Algo -&amp;gt; param (hour-window)&lt;div&gt;&lt;br&gt;&lt;/div&gt;&lt;div&gt;Song array should contain last 5 hours of data&lt;br&gt;&lt;div&gt;&lt;br&gt;&lt;/div&gt;&lt;div&gt;Song - frequency&lt;/div&gt;&lt;/div&gt;&lt;div&gt;priority sort (for top 10 max heap)&lt;/div&gt;" style="text;html=1;align=center;verticalAlign=middle;whiteSpace=wrap;rounded=0;fillColor=default;" vertex="1" parent="1">
          <mxGeometry x="730" y="40" width="260" height="160" as="geometry" />
        </mxCell>
        <mxCell id="QikCQaTpfB3SByb-oad5-18" style="edgeStyle=orthogonalEdgeStyle;rounded=0;orthogonalLoop=1;jettySize=auto;html=1;entryX=0.941;entryY=-0.004;entryDx=0;entryDy=0;entryPerimeter=0;" edge="1" parent="1" source="QikCQaTpfB3SByb-oad5-17" target="QikCQaTpfB3SByb-oad5-10">
          <mxGeometry relative="1" as="geometry">
            <mxPoint x="620" y="50" as="targetPoint" />
          </mxGeometry>
        </mxCell>
        <mxCell id="QikCQaTpfB3SByb-oad5-17" value="Song Application&lt;div&gt;&lt;br&gt;&lt;/div&gt;&lt;div&gt;-&amp;gt; GET /api/v1/songs =&amp;gt; [song]&lt;/div&gt;&lt;div&gt;-&amp;gt; analytic -&amp;gt; POST /api/v1/song/log&amp;nbsp;&lt;/div&gt;&lt;div&gt;payload {&lt;/div&gt;&lt;div&gt;songid,&lt;/div&gt;&lt;div&gt;name,&lt;/div&gt;&lt;div&gt;timestamp&lt;/div&gt;&lt;div&gt;}&lt;/div&gt;&lt;div&gt;&lt;br&gt;&lt;/div&gt;&lt;div&gt;/GET/api/v1/trendingsongs&lt;/div&gt;" style="rounded=0;whiteSpace=wrap;html=1;" vertex="1" parent="1">
          <mxGeometry x="300" y="-180" width="270" height="230" as="geometry" />
        </mxCell>
        <mxCell id="QikCQaTpfB3SByb-oad5-20" value="Grafana&lt;div&gt;(creating alert)&lt;/div&gt;" style="rounded=0;whiteSpace=wrap;html=1;" vertex="1" parent="1">
          <mxGeometry x="740" y="-100" width="120" height="60" as="geometry" />
        </mxCell>
      </root>
    </mxGraphModel>
  </diagram>
</mxfile>
